<svg width="25" height="25" viewBox="0 0 25 25" fill="none" xmlns="http://www.w3.org/2000/svg">
    <path opacity="0.4" fill-rule="evenodd" clip-rule="evenodd" d="M12.3623 0.167236C9.18595 0.168021 6.13999 1.43036 3.89427 3.67663C1.64855 5.92291 0.386963 8.96917 0.386963 12.1455C0.386963 15.3218 1.64855 18.3681 3.89427 20.6144C6.13999 22.8606 9.18595 24.123 12.3623 24.1238V0.167236Z" fill="#FFB6D5"/>
    <path fill-rule="evenodd" clip-rule="evenodd" d="M24.4459 24.1237H12.3622C5.74499 24.0949 0.383986 18.7778 0.383986 12.1454L0.38208 12.145H12.3623L12.3622 12.1454L12.3823 12.145H12.9882C16.0172 12.2228 18.8994 13.4666 21.0339 15.6171C23.1684 17.7676 24.3907 20.6589 24.4459 23.6884V24.1237Z" fill="#FFB6D5"/>
    <path opacity="0.51" fill-rule="evenodd" clip-rule="evenodd" d="M12.3625 12.145L0.384187 12.1454C0.378503 14.6206 1.14492 17.036 2.57669 19.0551C2.58708 19.0697 2.59755 19.0844 2.60793 19.099C3.71878 20.6502 5.18271 21.9148 6.87881 22.7885C8.57492 23.6622 10.4545 24.1199 12.3624 24.1237L12.3625 12.145Z" fill="#FEFBF6"/>
    <circle cx="19.3479" cy="6.15647" r="4.99094" fill="#FFB6D5"/>
</svg>