<svg width="21" height="20" viewBox="0 0 21 20" fill="none" xmlns="http://www.w3.org/2000/svg">
<g id="fi_2097612" clip-path="url(#clip0_15301_623)">
<path id="Vector" d="M8.09662 7.40198H7.85497C6.44824 7.40198 5.29667 8.51507 5.23486 9.90684H10.7167C10.6548 8.51523 9.50324 7.40198 8.09662 7.40198Z" fill="#163C3C"/>
<path id="Vector_2" d="M17.171 0H3.49579C1.75251 0 0.334229 1.53385 0.334229 3.41925V12.0542C0.334229 13.9396 1.75251 15.4734 3.49579 15.4734H7.60161L9.81149 19.6845C9.9133 19.8785 10.1143 20 10.3334 20C10.5525 20 10.7535 19.8785 10.8553 19.6845L13.0652 15.4734H17.171C18.9143 15.4734 20.3325 13.9396 20.3325 12.0542V3.41925C20.3326 1.53385 18.9143 0 17.171 0ZM10.8372 11.0857H5.11439C4.5294 11.0857 4.05348 10.6098 4.05348 10.0248C4.05348 8.44778 5.01871 7.09213 6.38938 6.51724C5.98423 6.1113 5.73338 5.55137 5.73338 4.93392C5.73338 3.69744 6.73932 2.69146 7.9758 2.69146C9.21227 2.69146 10.2182 3.69744 10.2182 4.93392C10.2182 5.55137 9.96733 6.1113 9.56222 6.51724C10.9329 7.09209 11.8981 8.44775 11.8981 10.0247C11.8982 10.6097 11.4222 11.0857 10.8372 11.0857ZM15.9373 10.1122C15.9373 10.3619 15.6331 10.4867 15.3289 10.4867C15.0247 10.4867 14.7204 10.3618 14.7204 10.1122V6.14155L14.4942 6.28199C14.424 6.32879 14.3538 6.34438 14.2992 6.34438C14.0729 6.34438 13.9169 6.10254 13.9169 5.86073C13.9169 5.69691 13.9871 5.54088 14.1431 5.44728L15.1728 4.82323C15.2353 4.78421 15.3133 4.76861 15.3991 4.76861C15.6487 4.76861 15.9373 4.91683 15.9373 5.15086V10.1122Z" fill="#163C3C"/>
<path id="Vector_3" d="M7.97586 5.99757C8.56235 5.99757 9.03948 5.52043 9.03948 4.9339C9.03948 4.34741 8.56231 3.87024 7.97586 3.87024C7.38941 3.87024 6.91223 4.34741 6.91223 4.9339C6.91219 5.52043 7.38937 5.99757 7.97586 5.99757Z" fill="#163C3C"/>
</g>
<defs>
<clipPath id="clip0_15301_623">
<rect width="20" height="20" fill="white" transform="translate(0.333374)"/>
</clipPath>
</defs>
</svg>
