<svg width="21" height="20" viewBox="0 0 21 20" fill="none" xmlns="http://www.w3.org/2000/svg">
<g id="fi_2081688" clip-path="url(#clip0_15301_613)">
<path id="Vector" d="M18.8254 0H12.5494C11.5538 0 10.7083 0.803086 10.7083 1.84113V11.2552C10.7083 11.4922 10.851 11.7058 11.0699 11.7965C11.2726 11.8805 11.5286 11.8494 11.7085 11.6696C11.7085 11.6696 13.4516 9.92672 14.0317 9.34508C14.0413 9.33598 14.0534 9.33074 14.065 9.33074H18.8254C19.8332 9.33074 20.6666 8.51695 20.6666 7.48961V1.84117C20.6666 0.80293 19.8208 0 18.8254 0ZM17.5702 6.1927H13.8046C13.481 6.1927 13.2186 5.93035 13.2186 5.60676C13.2186 5.28316 13.481 5.02082 13.8046 5.02082H17.5702C17.8938 5.02082 18.1561 5.28316 18.1561 5.60676C18.1561 5.93035 17.8938 6.1927 17.5702 6.1927ZM17.5702 3.6823H13.8046C13.481 3.6823 13.2186 3.41996 13.2186 3.09637C13.2186 2.77277 13.481 2.51043 13.8046 2.51043H17.5702C17.8938 2.51043 18.1561 2.77277 18.1561 3.09637C18.1561 3.41996 17.8938 3.6823 17.5702 3.6823Z" fill="#163C3C"/>
<path id="Vector_2" d="M16.1014 12.7233C15.5247 12.1476 14.5942 12.1484 14.0179 12.7237L13.7041 13.0375C12.0292 14.7125 9.30397 14.7124 7.62909 13.0375C5.9542 11.3626 5.9542 8.63741 7.62909 6.96253L7.94248 6.64909C8.50639 6.08624 8.5303 5.1523 7.94288 4.56487L5.43209 2.05409C4.85659 1.47956 3.92608 1.47808 3.34866 2.05444L1.72565 3.67745C1.04272 4.36038 0.666626 5.26847 0.666626 6.2344C0.666626 9.59472 1.90342 13.1731 4.69846 15.9682C7.49819 18.7679 11.079 20 14.4322 20C15.3982 20 16.3063 19.6239 16.9892 18.941L18.6118 17.3184C19.1767 16.7545 19.1986 15.8206 18.6122 15.2342L16.1014 12.7233Z" fill="#163C3C"/>
</g>
<defs>
<clipPath id="clip0_15301_613">
<rect width="20" height="20" fill="white" transform="translate(0.666626)"/>
</clipPath>
</defs>
</svg>
