<svg width="21" height="20" viewBox="0 0 21 20" fill="none" xmlns="http://www.w3.org/2000/svg">
<g id="fi_4457134" clip-path="url(#clip0_15301_601)">
<g id="Group">
<path id="Vector" d="M15.7606 0.133301C13.2329 0.133301 11.1765 2.18968 11.1765 4.71731C11.1765 7.24494 13.2329 9.30132 15.7606 9.30132C18.2883 9.30132 20.3447 7.24494 20.3447 4.71731C20.3447 2.18968 18.2883 0.133301 15.7606 0.133301ZM16.6119 6.02483C16.6119 6.38649 16.3187 6.6797 15.9571 6.6797C15.5954 6.6797 15.3022 6.38649 15.3022 6.02483V4.28305C15.2978 4.2816 14.8335 4.29265 14.6809 3.83511C14.5666 3.492 14.752 3.12113 15.0951 3.00675L15.75 2.78845C16.174 2.64726 16.612 2.96331 16.612 3.40971V6.02483H16.6119Z" fill="#163C3C"/>
<path id="Vector_2" d="M12.1149 9.34494H3.75257C3.39091 9.34494 3.0977 9.05174 3.0977 8.69007C3.0977 8.32841 3.39091 8.0352 3.75257 8.0352H10.8922C10.1145 6.89778 9.76154 5.5325 9.8943 4.14972H3.92939C2.12391 4.14972 0.655029 5.61855 0.655029 7.42399V12.7501C0.655029 14.346 1.80267 15.6789 3.31599 15.9668V19.2114C3.31599 19.7924 4.01644 20.0827 4.4287 19.6796L8.16706 16.0244H13.1391C14.9445 16.0244 16.4134 14.5556 16.4134 12.7501V10.5746C14.8632 10.7462 13.3304 10.3045 12.1149 9.34494ZM12.4842 11.9643H3.75257C3.39091 11.9643 3.0977 11.6711 3.0977 11.3095C3.0977 10.9478 3.39091 10.6546 3.75257 10.6546H12.4842C12.8459 10.6546 13.1391 10.9478 13.1391 11.3095C13.1391 11.6712 12.8459 11.9643 12.4842 11.9643Z" fill="#163C3C"/>
</g>
</g>
<defs>
<clipPath id="clip0_15301_601">
<rect width="20" height="20" fill="white" transform="translate(0.5)"/>
</clipPath>
</defs>
</svg>
