<svg width="30" height="30" viewBox="0 0 30 30" fill="none" xmlns="http://www.w3.org/2000/svg">
<g id="fi_2285551" clip-path="url(#clip0_15301_440)">
<path id="Vector" d="M7.63115 8.10156L5.03206 8.30236C4.30885 8.35826 3.66473 8.7373 3.26477 9.34227L0.267317 13.8758C-0.0360202 14.3345 -0.0842425 14.9087 0.138236 15.4117C0.360773 15.9146 0.818094 16.2651 1.36155 16.3493L3.74131 16.7179C4.29801 13.7636 5.63065 10.8166 7.63115 8.10156Z" fill="white"/>
<path id="Vector_2" d="M13.282 26.2586L13.6506 28.6384C13.7348 29.1818 14.0853 29.6391 14.5882 29.8616C14.7974 29.9542 15.0189 29.9999 15.2393 29.9999C15.5488 29.9999 15.8562 29.9097 16.1242 29.7325L20.6578 26.7351C21.2627 26.3351 21.6418 25.691 21.6976 24.9679L21.8984 22.3688C19.1833 24.3693 16.2363 25.702 13.282 26.2586Z" fill="white"/>
<path id="Vector_3" d="M12.3871 24.6092C12.4697 24.6092 12.5528 24.6024 12.6357 24.5885C13.8734 24.3816 15.0664 24.033 16.2044 23.5766L6.4234 13.7957C5.96708 14.9336 5.61845 16.1266 5.4115 17.3643C5.32993 17.8522 5.49359 18.3493 5.84333 18.6991L11.3009 24.1567C11.5913 24.447 11.9833 24.6092 12.3871 24.6092Z" fill="white"/>
<path id="Vector_4" d="M27.6079 13.3009C30.0014 8.67351 30.09 3.78354 29.9649 1.4902C29.9221 0.704409 29.2956 0.0779291 28.5098 0.0350974C28.1363 0.0147069 27.6938 0 27.195 0C24.6306 0 20.573 0.388415 16.6991 2.39213C13.6205 3.98452 9.5836 7.4908 7.2019 12.0987C7.23003 12.1207 7.25751 12.144 7.28341 12.1699L17.8302 22.7167C17.8561 22.7426 17.8794 22.77 17.9013 22.7981C22.5092 20.4164 26.0155 16.3795 27.6079 13.3009ZM17.4431 6.34214C19.1565 4.62881 21.9444 4.62864 23.6578 6.34214C24.4879 7.17211 24.9449 8.27572 24.9449 9.44952C24.9449 10.6233 24.4879 11.7269 23.6578 12.5569C22.8013 13.4135 21.6757 13.8418 20.5505 13.842C19.425 13.842 18.2999 13.4137 17.4431 12.5569C16.6131 11.7269 16.156 10.6233 16.156 9.44952C16.156 8.27572 16.6131 7.17211 17.4431 6.34214Z" fill="white"/>
<path id="Vector_5" d="M18.6861 11.314C19.7141 12.342 21.387 12.3421 22.415 11.314C22.913 10.8159 23.1873 10.1538 23.1873 9.44952C23.1873 8.74522 22.913 8.08311 22.415 7.58512C21.901 7.07108 21.2258 6.81409 20.5505 6.81409C19.8754 6.81409 19.2001 7.07108 18.6861 7.58512C18.1882 8.08311 17.9138 8.74522 17.9138 9.44952C17.9138 10.1538 18.1881 10.816 18.6861 11.314Z" fill="white"/>
<path id="Vector_6" d="M0.896758 24.7228C1.1217 24.7228 1.34664 24.637 1.5182 24.4654L4.38772 21.5958C4.73096 21.2526 4.73096 20.6961 4.38772 20.3529C4.04453 20.0096 3.48801 20.0096 3.14477 20.3529L0.275254 23.2224C-0.0679883 23.5656 -0.0679883 24.1221 0.275254 24.4654C0.446875 24.637 0.671816 24.7228 0.896758 24.7228Z" fill="white"/>
<path id="Vector_7" d="M7.01752 22.9825C6.67434 22.6393 6.11781 22.6393 5.77457 22.9825L0.257676 28.4994C-0.0855664 28.8427 -0.0855664 29.3991 0.257676 29.7424C0.429297 29.914 0.654238 29.9998 0.87918 29.9998C1.10412 29.9998 1.32906 29.914 1.50063 29.7423L7.01746 24.2255C7.36076 23.8822 7.36076 23.3258 7.01752 22.9825Z" fill="white"/>
<path id="Vector_8" d="M8.40423 25.6123L5.53478 28.4818C5.19153 28.825 5.19153 29.3815 5.53478 29.7248C5.7064 29.8964 5.93134 29.9822 6.15622 29.9822C6.3811 29.9822 6.6061 29.8964 6.77767 29.7248L9.64718 26.8552C9.99042 26.512 9.99042 25.9555 9.64718 25.6123C9.30399 25.269 8.74747 25.269 8.40423 25.6123Z" fill="white"/>
</g>
<defs>
<clipPath id="clip0_15301_440">
<rect width="30" height="30" fill="white"/>
</clipPath>
</defs>
</svg>
