<svg width="102" height="25" viewBox="0 0 102 25" fill="none" xmlns="http://www.w3.org/2000/svg">
<path d="M85.2844 22.3506C80.256 22.3506 76.2965 18.5725 76.2965 13.3265C76.2965 8.08053 80.256 4.35059 85.2844 4.35059C90.337 4.35059 94.2965 8.08053 94.2965 13.3265C94.2965 18.5725 90.337 22.3506 85.2844 22.3506ZM85.2844 18.2837C88.0293 18.2837 89.5597 16.0458 89.5597 13.3265C89.5597 10.6073 88.0293 8.41743 85.2844 8.41743C82.5394 8.41743 81.0091 10.6073 81.0091 13.3265C81.0091 16.0458 82.5394 18.2837 85.2844 18.2837Z" fill="#1E1E1E"/>
<path fill-rule="evenodd" clip-rule="evenodd" d="M58.2965 22.1674C58.2965 22.1593 58.2965 22.1512 58.2965 22.1431C58.2965 16.8315 62.256 13.0549 67.2844 13.0549C72.337 13.0549 76.2965 16.8315 76.2965 22.1431C76.2965 22.1512 76.2965 22.1593 76.2965 22.1674H71.5596C71.5597 22.1593 71.5597 22.1512 71.5597 22.1431C71.5597 19.3898 70.0293 17.1726 67.2844 17.1726C64.5394 17.1726 63.0091 19.3898 63.0091 22.1431C63.0091 22.1512 63.0091 22.1593 63.0091 22.1674H58.2965Z" fill="#FFB6D5"/>
<path fill-rule="evenodd" clip-rule="evenodd" d="M76.2965 4.16728C76.2965 4.1754 76.2965 4.18352 76.2965 4.19165C76.2965 9.50321 72.337 13.2798 67.3087 13.2798C62.256 13.2798 58.2965 9.50321 58.2965 4.19165C58.2965 4.18352 58.2965 4.1754 58.2965 4.16728H63.0334C63.0334 4.1754 63.0334 4.18352 63.0334 4.19165C63.0334 6.94489 64.5637 9.1621 67.3087 9.1621C70.0536 9.1621 71.584 6.94489 71.584 4.19165C71.584 4.18352 71.5839 4.1754 71.5839 4.16728H76.2965Z" fill="#FFB6D5"/>
<path d="M55.2324 22.1514H50.5074V4.20137H55.2324V22.1514Z" fill="#1E1E1E"/>
<path d="M40.2365 16.6498H37.9615V22.1248H33.2365V4.17475H40.2365C44.9365 4.17475 47.7615 6.27476 47.7615 10.2998C47.7615 14.3498 44.9365 16.6498 40.2365 16.6498ZM40.2115 8.14976H37.9615V12.6748H40.2115C42.0865 12.6748 43.0615 11.7248 43.0615 10.3498C43.0615 8.94976 42.0865 8.14976 40.2115 8.14976Z" fill="#1E1E1E"/>
<path opacity="0.4" fill-rule="evenodd" clip-rule="evenodd" d="M12.3623 0.167236C9.18595 0.168021 6.13999 1.43036 3.89427 3.67663C1.64855 5.92291 0.386963 8.96917 0.386963 12.1455C0.386963 15.3218 1.64855 18.3681 3.89427 20.6144C6.13999 22.8606 9.18595 24.123 12.3623 24.1238V0.167236Z" fill="#FFB6D5"/>
<path fill-rule="evenodd" clip-rule="evenodd" d="M24.4459 24.1237H12.3622C5.74499 24.0949 0.383986 18.7778 0.383986 12.1454L0.38208 12.145H12.3623L12.3622 12.1454L12.3823 12.145H12.9882C16.0172 12.2228 18.8994 13.4666 21.0339 15.6171C23.1684 17.7676 24.3907 20.6589 24.4459 23.6884V24.1237Z" fill="#FFB6D5"/>
<path opacity="0.51" fill-rule="evenodd" clip-rule="evenodd" d="M12.3625 12.145L0.384187 12.1454C0.378503 14.6206 1.14492 17.036 2.57669 19.0551C2.58708 19.0697 2.59755 19.0844 2.60793 19.099C3.71878 20.6502 5.18271 21.9148 6.87881 22.7885C8.57492 23.6622 10.4545 24.1199 12.3624 24.1237L12.3625 12.145Z" fill="#FEFBF6"/>
<circle cx="19.3479" cy="6.15647" r="4.99094" fill="#FFB6D5"/>
</svg>
