<svg width="31" height="30" viewBox="0 0 31 30" fill="none" xmlns="http://www.w3.org/2000/svg">
<g id="fi_2203512" clip-path="url(#clip0_15301_456)">
<path id="Vector" d="M1.63906 18.8097C0.925977 19.7126 0.5 20.8523 0.5 22.0898V26.455C0.5 26.9402 0.89375 27.3339 1.37891 27.3339H6.71094V24.9902C6.71094 23.1245 7.4123 21.4183 8.56602 20.1239C6.28842 21.5069 3.2975 20.9823 1.63906 18.8097Z" fill="white"/>
<path id="Vector_2" d="M29.3609 18.8097C27.7025 20.9823 24.7116 21.5069 22.434 20.1239C23.5877 21.4183 24.289 23.1245 24.289 24.9902V27.3339H29.6211C30.1062 27.3339 30.5 26.9402 30.5 26.455V22.0898C30.5 20.8523 30.074 19.7126 29.3609 18.8097Z" fill="white"/>
<path id="Vector_3" d="M20.2033 20.4653C19.1717 21.9587 17.4483 22.9393 15.5 22.9393C13.5517 22.9393 11.8283 21.9587 10.7967 20.4653C9.38814 21.4764 8.46875 23.1278 8.46875 24.9901V28.2127C8.46875 28.6981 8.86227 29.0916 9.34766 29.0916H21.6523C22.1377 29.0916 22.5312 28.6981 22.5312 28.2127V24.9901C22.5312 23.1278 21.6119 21.4764 20.2033 20.4653Z" fill="white"/>
<path id="Vector_4" d="M15.5 21.1815C17.6843 21.1815 19.4551 19.4108 19.4551 17.2264C19.4551 15.0421 17.6843 13.2714 15.5 13.2714C13.3157 13.2714 11.5449 15.0421 11.5449 17.2264C11.5449 19.4108 13.3157 21.1815 15.5 21.1815Z" fill="white"/>
<path id="Vector_5" d="M5.83203 19.1307C7.77366 19.1307 9.34766 17.5567 9.34766 15.6151C9.34766 13.6735 7.77366 12.0995 5.83203 12.0995C3.89041 12.0995 2.31641 13.6735 2.31641 15.6151C2.31641 17.5567 3.89041 19.1307 5.83203 19.1307Z" fill="white"/>
<path id="Vector_6" d="M25.168 19.1307C27.1096 19.1307 28.6836 17.5567 28.6836 15.6151C28.6836 13.6735 27.1096 12.0995 25.168 12.0995C23.2263 12.0995 21.6523 13.6735 21.6523 15.6151C21.6523 17.5567 23.2263 19.1307 25.168 19.1307Z" fill="white"/>
<path id="Vector_7" d="M12.7143 8.70074C13.8629 9.73574 14.9998 10.4221 15.0477 10.4508C15.326 10.6179 15.6738 10.6179 15.9522 10.4508C16 10.4221 17.137 9.73569 18.2855 8.70074C19.9364 7.21322 20.7734 5.77123 20.7734 4.4149C20.7734 1.33996 17.6244 -0.105428 15.5 1.69785C13.3759 -0.105077 10.2266 1.33944 10.2266 4.4149C10.2266 5.77123 11.0636 7.21322 12.7143 8.70074Z" fill="white"/>
</g>
<defs>
<clipPath id="clip0_15301_456">
<rect width="30" height="30" fill="white" transform="translate(0.5)"/>
</clipPath>
</defs>
</svg>
