<svg width="30" height="30" viewBox="0 0 30 30" fill="none" xmlns="http://www.w3.org/2000/svg">
<g id="fi_2139004" clip-path="url(#clip0_15304_856)">
<path id="Vector" d="M21.2183 19.8825L30 28.1695V14.0913C27.9421 15.4481 22.8784 18.7877 21.2183 19.8825Z" fill="white"/>
<path id="Vector_2" d="M0 14.0913V28.1695L8.78176 19.8825C1.31835 14.9604 3.98659 16.7199 0 14.0913Z" fill="white"/>
<path id="Vector_3" d="M15.4858 23.6631C15.1898 23.8576 14.8099 23.8576 14.514 23.6631L10.2946 20.8807L1.33813 29.3331H28.6617L19.7052 20.8807L15.4858 23.6631Z" fill="white"/>
<path id="Vector_4" d="M3.16654 10.2555L0.719482 12.452C2.35507 13.5304 1.79919 13.164 3.16654 14.0649C3.16654 13.6844 3.16654 10.7138 3.16654 10.2555Z" fill="white"/>
<path id="Vector_5" d="M15.3743 0.801341C15.157 0.622047 14.843 0.622047 14.6256 0.801341L11.9211 3.03252H18.0788L15.3743 0.801341Z" fill="white"/>
<path id="Vector_6" d="M26.8335 10.2555V14.0649C28.1976 13.1662 27.644 13.531 29.2806 12.452L26.8335 10.2555Z" fill="white"/>
<path id="Vector_7" d="M25.0688 15.2296V5.38548C25.0688 5.06059 24.8054 4.79724 24.4806 4.79724H5.51939C5.19451 4.79724 4.93115 5.06059 4.93115 5.38548V15.2296L15 21.8696L25.0688 15.2296ZM13.1017 11.0849C12.6147 11.0849 12.2194 10.6896 12.2194 10.2025C12.2194 8.63954 13.5042 7.38489 15.0664 7.42254C16.5529 7.45783 17.7447 8.64959 17.7794 10.1355C17.8067 11.2674 17.2714 11.8695 16.6488 12.4519C16.1717 12.8908 15.8823 13.4918 15.8823 14.1919C15.8823 14.677 15.4894 15.0743 15 15.0743C14.5113 15.0743 14.1176 14.6778 14.1176 14.1919C14.1176 11.6237 16.0388 11.149 16.0153 10.1772C16.0029 9.64371 15.5582 9.19959 15.0247 9.18724C14.454 9.17377 13.9841 9.63048 13.9841 10.2025C13.9841 10.6877 13.592 11.0849 13.1017 11.0849ZM14.1182 17.2719C14.1176 17.2631 14.1176 17.2537 14.1176 17.2449V16.6631C14.1176 16.1761 14.5129 15.7808 15 15.7808C15.487 15.7808 15.8823 16.1761 15.8823 16.6631V17.2449C15.8823 17.2537 15.8823 17.2631 15.8817 17.2719C15.8676 17.7467 15.4782 18.1272 15 18.1272C14.5217 18.1272 14.1323 17.7467 14.1182 17.2719Z" fill="white"/>
</g>
<defs>
<clipPath id="clip0_15304_856">
<rect width="30" height="30" fill="white"/>
</clipPath>
</defs>
</svg>
